<mxfile host="65bd71144e">
    <diagram id="C3veXPTIxNbwDehQJ0Oc" name="Page-1">
        <mxGraphModel dx="352" dy="316" grid="1" gridSize="10" guides="1" tooltips="1" connect="1" arrows="1" fold="1" page="1" pageScale="1" pageWidth="850" pageHeight="1100" math="0" shadow="0">
            <root>
                <mxCell id="0"/>
                <mxCell id="1" parent="0"/>
                <mxCell id="2" value="" style="shape=image;verticalLabelPosition=bottom;labelBackgroundColor=default;verticalAlign=top;aspect=fixed;imageAspect=0;image=https://nightlies.apache.org/flink/flink-docs-master/fig/distributed-runtime.svg;" vertex="1" parent="1">
                    <mxGeometry x="30" y="30" width="520" height="227" as="geometry"/>
                </mxCell>
            </root>
        </mxGraphModel>
    </diagram>
</mxfile>